# xmcd CD database file
#
# Track frame offsets:
#	150
#	10759
#	25943
#	41580
#	57615
#	68341
#	83406
#	98512
#
# Disc length: 1535 seconds
#
# Revision: 0
# Processed by: cddbd v1.5.1PL0 Copyright (c) Steve Scherf et al.
# Submitted via: CDex 1.50
#
DISCID=5105fd08
DTITLE=Nonett der HSfM Hanns Eisler, Ltg. Prof. Alfons Wonneberg - Birth Of The Cool (Live at The Jazz-Spinners Berlin)
DYEAR=2005
DGENRE=Jazz
TTITLE0=Move
TTITLE1=Boplicity
TTITLE2=Deception
TTITLE3=Moon Dreams
TTITLE4=Israel
TTITLE5=Venus de Milo
TTITLE6=Godchild
TTITLE7=Jeru
EXTD=YEAR: 2005
EXTT0=
EXTT1=
EXTT2=
EXTT3=
EXTT4=
EXTT5=
EXTT6=
EXTT7=
PLAYORDER=
